<?xml version="1.0" encoding="UTF-8" standalone="no"?>
<!-- Created with Inkscape (http://www.inkscape.org/) -->

<svg
   width="16"
   height="16"
   id="svg2"
   version="1.1"
   xml:space="preserve"
   xmlns="http://www.w3.org/2000/svg"
   xmlns:svg="http://www.w3.org/2000/svg"
   xmlns:rdf="http://www.w3.org/1999/02/22-rdf-syntax-ns#"
   xmlns:cc="http://creativecommons.org/ns#"
   xmlns:dc="http://purl.org/dc/elements/1.1/"><defs
     id="defs4" /><metadata
     id="metadata7"><rdf:RDF><cc:Work
         rdf:about=""><dc:format>image/svg+xml</dc:format><dc:type
           rdf:resource="http://purl.org/dc/dcmitype/StillImage" /></cc:Work></rdf:RDF></metadata><g
     id="layer1"
     style="display:inline"
     transform="translate(0,-1036.3622)"><path
       id="rect1"
       style="fill:#ffffff;stroke:#5f5f5f;stroke-width:1.5;stroke-linecap:square;stroke-dasharray:none;paint-order:markers stroke fill"
       d="m 6.5562056,1038.7708 h 5.8689864 a 0.8993514,0.8993514 45 0 1 0.899351,0.8994 v 0.4551 a 0.8993514,0.8993514 135 0 1 -0.899351,0.8994 H 6.5562056 a 0.8993514,0.8993514 45 0 1 -0.8993514,-0.8994 v -0.4551 a 0.8993514,0.8993514 135 0 1 0.8993514,-0.8994 z"
       transform="matrix(0.98174035,0,0,1.0654971,0.18274324,-68.645952)" /><path
       id="rect3"
       style="display:inline;fill:#3988d8;fill-opacity:0.94509804;stroke:none;stroke-width:1.16848;stroke-linecap:square;stroke-dasharray:none;stroke-opacity:1;paint-order:markers stroke fill"
       d="M 2 1037.3622 L 2 1042.3681 L 0.01171875 1043.6688 L 0 1045.3212 L 2 1046.3622 L 2 1049.3622 L 2 1051.3622 L 5 1051.3622 L 5 1049.3622 L 4 1049.3622 L 4 1037.3622 L 2 1037.3622 z " /><path
       id="rect1-8"
       style="display:inline;fill:#ffffff;stroke:#5f5f5f;stroke-width:1.5;stroke-linecap:square;stroke-dasharray:none;paint-order:markers stroke fill"
       d="m 6.5562056,1038.7708 h 5.8689864 a 0.8993514,0.8993514 45 0 1 0.899351,0.8994 v 0.4551 a 0.8993514,0.8993514 135 0 1 -0.899351,0.8994 H 6.5562056 a 0.8993514,0.8993514 45 0 1 -0.8993514,-0.8994 v -0.4551 a 0.8993514,0.8993514 135 0 1 0.8993514,-0.8994 z"
       transform="matrix(0.98174035,0,0,1.0654971,1.1827432,-63.645952)" /><path
       id="rect1-6"
       style="display:inline;fill:#ffffff;stroke:#5f5f5f;stroke-width:1.5;stroke-linecap:square;stroke-dasharray:none;paint-order:markers stroke fill"
       d="m 6.5562056,1038.7708 h 5.8689864 a 0.8993514,0.8993514 45 0 1 0.899351,0.8994 v 0.4551 a 0.8993514,0.8993514 135 0 1 -0.899351,0.8994 H 6.5562056 a 0.8993514,0.8993514 45 0 1 -0.8993514,-0.8994 v -0.4551 a 0.8993514,0.8993514 135 0 1 0.8993514,-0.8994 z"
       transform="matrix(0.98174035,0,0,1.0654971,2.1827432,-58.645952)" /><path
       id="path3"
       style="color:#000000;fill:#184b7e;fill-opacity:0.945098;stroke-width:1.00025;stroke-linecap:square;-inkscape-stroke:none;paint-order:markers stroke fill"
       d="M 2 1042.3642 L 2 1042.6376 L 2 1043.0419 L 2.546875 1043.0419 L 2.546875 1043.0477 C 3.0381688 1043.2108 3.4531238 1043.6702 3.453125 1044.3622 C 3.4531238 1045.0542 3.0381688 1045.5155 2.546875 1045.6786 L 2.546875 1045.6806 L 2 1045.6806 L 2 1046.3642 L 2.2734375 1046.3642 C 3.2513349 1046.3642 3.9999981 1045.4406 4 1044.3622 C 3.9999981 1043.2838 3.2513349 1042.3642 2.2734375 1042.3642 L 2 1042.3642 z " /></g></svg>
