<?xml version="1.0" encoding="UTF-8" standalone="no"?>
<!-- Created with Inkscape (http://www.inkscape.org/) -->

<svg
   width="16"
   height="16"
   viewBox="0 0 15.999999 15.999999"
   id="svg2"
   version="1.1"
   xmlns="http://www.w3.org/2000/svg"
   xmlns:svg="http://www.w3.org/2000/svg"
   xmlns:rdf="http://www.w3.org/1999/02/22-rdf-syntax-ns#"
   xmlns:cc="http://creativecommons.org/ns#"
   xmlns:dc="http://purl.org/dc/elements/1.1/">
  <defs
     id="defs4" />
  <metadata
     id="metadata7">
    <rdf:RDF>
      <cc:Work
         rdf:about="">
        <dc:format>image/svg+xml</dc:format>
        <dc:type
           rdf:resource="http://purl.org/dc/dcmitype/StillImage" />
        <dc:title />
      </cc:Work>
    </rdf:RDF>
  </metadata>
  <g
     id="layer2"
     transform="translate(0,-1036.3622)"
     style="display:none">
    <rect
       style="fill:#3fff00;fill-opacity:1;fill-rule:evenodd;stroke:#000000;stroke-width:0.89384377px;stroke-linecap:butt;stroke-linejoin:miter;stroke-opacity:1"
       id="rect4146"
       width="31.068888"
       height="31.24704"
       x="0.47503051"
       y="1020.6794" />
  </g>
  <g
     id="layer1"
     transform="translate(0,-1036)">
    <g
       id="g3407"
       transform="matrix(0.5,0,0,0.5,-51.999293,998.02359)">
      <path
         style="fill:#fefefe"
         d="M126.0 96.0C126.0 96.0 116.0 96.0 116.0 96.0C116.0 96.0 116.0 90.0 116.0 90.0C116.0 90.0 126.0 90.0 126.0 90.0C126.0 90.0 126.0 84.0 126.0 84.0C126.0 84.0 136.0 93.0 136.0 93.0C136.0 93.0 126.0 102.0 126.0 102.0"
         id="path3413" />
      <path
         style="fill:#6565fe"
         d="M110.0 84.0C110.0 84.0 124.0 84.0 124.0 84.0C124.0 84.0 124.0 90.0 124.0 90.0C124.0 90.0 120.0 90.0 120.0 90.0C120.0 90.0 120.0 88.0 120.0 88.0C120.0 88.0 114.0 88.0 114.0 88.0C114.0 88.0 114.0 98.0 114.0 98.0C114.0 98.0 120.0 98.0 120.0 98.0C120.0 98.0 120.0 96.0 120.0 96.0C120.0 96.0 124.0 96.0 124.0 96.0C124.0 96.0 124.0 102.0 124.0 102.0C124.0 102.0 110.0 102.0 110.0 102.0"
         id="path3411" />
      <path
         style="fill:#000000"
         d="M128.0 99.0C128.0 99.0 128.0 94.0 128.0 94.0C128.0 94.0 118.0 94.0 118.0 94.0C118.0 94.0 118.0 92.0 118.0 92.0C118.0 92.0 128.0 92.0 128.0 92.0C128.0 92.0 128.0 88.0 128.0 88.0C128.0 88.0 134.0 93.0 134.0 93.0C134.0 93.0 128.0 98.0 128.0 98.0"
         id="path3409" />
    </g>
  </g>
</svg>
